<?xml version="1.0" encoding="UTF-8" standalone="no"?>
<!DOCTYPE svg PUBLIC "-//W3C//DTD SVG 1.1//EN" "http://www.w3.org/Graphics/SVG/1.1/DTD/svg11.dtd">
<svg width="100%" height="100%" viewBox="0 0 800 800" version="1.1" xmlns="http://www.w3.org/2000/svg" xmlns:xlink="http://www.w3.org/1999/xlink" xml:space="preserve" xmlns:serif="http://www.serif.com/" style="fill-rule:evenodd;clip-rule:evenodd;stroke-linejoin:round;stroke-miterlimit:2;">
    <g transform="matrix(6.4,0,0,6.4,-9.6,-9.6)">
        <g id="Icon---Parametric-Guitar" serif:id="Icon - Parametric Guitar">
            <g>
                <g transform="matrix(0.156885,0,0,0.156885,-16.5912,-16.3252)">
                    <path d="M767.968,612.438L356.192,728.785C349.958,730.547 343.256,729.179 338.21,725.116C294.921,689.861 261.911,641.172 246.37,583.175C230.83,525.178 235.074,466.507 254.957,414.339C257.292,408.304 262.407,403.774 268.679,402.184C301.719,393.798 412.388,365.741 511.103,340.718L811.213,264.651C819.009,262.675 827.23,265.56 832.08,271.975C861.88,311.679 884.743,357.615 898.37,408.472C911.997,459.329 915.166,510.543 909.197,559.826C908.204,567.801 902.531,574.406 894.797,576.591L767.968,612.438ZM367.156,722.377L367.49,722.251L367.804,722.058L368.073,721.804L368.283,721.512L368.43,721.187L368.515,720.829L368.526,720.46L368.467,720.105L283.645,403.542L283.518,403.205L283.324,402.892L283.071,402.624L282.781,402.416L282.453,402.268L282.094,402.183L281.725,402.172L281.373,402.23L281.036,402.357L280.722,402.552L280.454,402.805L280.246,403.095L280.098,403.423L280.014,403.783L280.003,404.15L280.061,404.502L364.884,721.065L365.01,721.399L365.203,721.712L365.455,721.981L365.748,722.191L366.073,722.339L366.431,722.424L366.8,722.435L367.156,722.377ZM489.648,685.866L405.71,372.603L405.583,372.267L405.389,371.953L405.136,371.685L404.846,371.478L404.519,371.329L404.159,371.244L403.791,371.234L403.438,371.292L403.101,371.419L402.787,371.614L402.519,371.867L402.312,372.157L402.163,372.485L402.079,372.844L402.069,373.212L402.127,373.563L486.065,686.826L486.191,687.16L486.384,687.473L486.636,687.742L486.929,687.952L487.253,688.1L487.612,688.185L487.981,688.196L488.337,688.138L488.671,688.012L488.985,687.819L489.254,687.565L489.464,687.273L489.611,686.948L489.696,686.59L489.707,686.221L489.648,685.866ZM700.167,477.235L701.541,476.79L702.898,476.201L704.211,475.474L704.843,475.061L705.453,474.615L706.04,474.138L706.601,473.633L707.638,472.549L708.554,471.388L709.334,470.172L709.992,468.885L710.535,467.509L710.949,466.066L711.104,465.328L711.22,464.581L711.298,463.829L711.337,463.075L711.304,461.575L711.13,460.107L710.823,458.696L710.378,457.32L709.789,455.963L709.061,454.65L708.648,454.018L708.202,453.408L707.725,452.821L707.22,452.261L706.137,451.223L704.975,450.308L703.761,449.528L702.473,448.87L701.096,448.327L699.653,447.912L698.914,447.758L698.167,447.642L697.415,447.564L696.662,447.525L695.162,447.558L693.694,447.732L692.284,448.039L690.908,448.485L689.55,449.074L688.237,449.802L687.606,450.215L686.995,450.661L686.409,451.137L685.849,451.643L684.812,452.726L683.897,453.887L683.116,455.102L682.459,456.39L681.915,457.766L681.501,459.209L681.347,459.947L681.23,460.694L681.153,461.446L681.114,462.199L681.147,463.699L681.321,465.167L681.628,466.578L682.073,467.954L682.662,469.311L683.389,470.624L683.802,471.255L684.248,471.865L684.725,472.452L685.23,473.012L686.313,474.05L687.475,474.965L688.69,475.746L689.977,476.403L691.353,476.946L692.795,477.361L693.534,477.515L694.281,477.632L695.032,477.709L695.786,477.749L697.286,477.716L698.755,477.542L700.167,477.235ZM555.695,667.205L472.239,355.741L472.112,355.404L471.918,355.091L471.665,354.823L471.375,354.615L471.047,354.467L470.688,354.382L470.319,354.371L469.967,354.429L469.63,354.557L469.316,354.751L469.048,355.004L468.84,355.294L468.692,355.622L468.608,355.982L468.597,356.35L468.656,356.701L552.112,668.165L552.237,668.499L552.43,668.812L552.683,669.081L552.976,669.291L553.3,669.438L553.659,669.523L554.028,669.535L554.384,669.477L554.718,669.351L555.032,669.157L555.301,668.904L555.51,668.612L555.658,668.287L555.742,667.929L555.754,667.56L555.695,667.205ZM336.719,491.133L338.098,490.701L339.461,490.125L340.782,489.411L341.417,489.004L342.032,488.564L342.623,488.093L343.189,487.593L344.237,486.519L345.164,485.366L345.956,484.159L346.626,482.878L347.183,481.507L347.611,480.069L347.772,479.331L347.896,478.586L347.981,477.835L348.027,477.082L348.009,475.582L347.849,474.112L347.556,472.698L347.124,471.319L346.548,469.956L345.834,468.636L345.427,468.001L344.987,467.386L344.517,466.795L344.017,466.23L342.944,465.182L341.792,464.256L340.585,463.463L339.303,462.793L337.932,462.236L336.493,461.808L335.756,461.646L335.01,461.522L334.259,461.437L333.506,461.391L332.006,461.409L330.536,461.569L329.122,461.862L327.741,462.295L326.378,462.871L325.057,463.585L324.422,463.993L323.807,464.432L323.216,464.903L322.651,465.403L321.603,466.477L320.677,467.629L319.885,468.836L319.215,470.117L318.659,471.488L318.23,472.926L318.069,473.663L317.945,474.409L317.86,475.16L317.814,475.912L317.832,477.412L317.992,478.882L318.285,480.295L318.717,481.674L319.292,483.037L320.006,484.357L320.413,484.992L320.852,485.607L321.323,486.198L321.823,486.764L322.896,487.812L324.048,488.738L325.256,489.531L326.537,490.201L327.907,490.758L329.345,491.187L330.083,491.348L330.828,491.472L331.579,491.558L332.333,491.604L333.833,491.586L335.304,491.427L336.719,491.133ZM378.745,646.845L380.116,646.387L381.467,645.784L382.773,645.045L383.401,644.625L384.007,644.174L384.589,643.691L385.145,643.181L386.172,642.087L387.076,640.916L387.845,639.694L388.49,638.4L389.02,637.019L389.42,635.573L389.568,634.833L389.677,634.085L389.747,633.333L389.779,632.579L389.732,631.08L389.544,629.613L389.223,628.205L388.765,626.835L388.163,625.483L387.424,624.177L387.004,623.55L386.553,622.944L386.071,622.362L385.56,621.806L384.467,620.779L383.297,619.875L382.075,619.106L380.781,618.46L379.399,617.93L377.952,617.529L377.211,617.382L376.463,617.273L375.711,617.202L374.957,617.171L373.457,617.218L371.99,617.406L370.583,617.727L369.211,618.186L367.858,618.788L366.552,619.528L365.925,619.948L365.318,620.399L364.737,620.882L364.181,621.393L363.154,622.486L362.251,623.656L361.482,624.878L360.837,626.173L360.307,627.554L359.907,629.001L359.76,629.741L359.651,630.489L359.581,631.241L359.549,631.995L359.596,633.494L359.784,634.96L360.105,636.368L360.564,637.738L361.166,639.09L361.905,640.395L362.324,641.022L362.775,641.628L363.258,642.21L363.768,642.766L364.861,643.793L366.031,644.697L367.254,645.466L368.547,646.111L369.928,646.641L371.374,647.041L372.114,647.189L372.862,647.298L373.615,647.369L374.369,647.401L375.869,647.354L377.336,647.166L378.745,646.845ZM550.718,487.82L549.979,487.665L549.233,487.549L548.481,487.471L547.727,487.432L546.228,487.465L544.76,487.639L543.349,487.946L541.973,488.392L540.615,488.981L539.302,489.708L538.671,490.122L538.061,490.567L537.474,491.044L536.914,491.549L535.877,492.633L534.962,493.794L534.181,495.008L533.524,496.296L532.98,497.673L532.566,499.115L532.412,499.854L532.295,500.601L532.218,501.352L532.178,502.106L532.211,503.606L532.385,505.074L532.692,506.485L533.138,507.86L533.727,509.217L534.454,510.53L534.867,511.162L535.312,511.772L535.789,512.359L536.294,512.919L537.378,513.957L538.539,514.872L539.754,515.653L541.041,516.31L542.417,516.853L543.859,517.268L544.598,517.422L545.345,517.539L546.097,517.616L546.85,517.656L548.35,517.623L549.819,517.449L551.231,517.142L552.605,516.697L553.962,516.108L555.275,515.381L555.907,514.968L556.518,514.522L557.104,514.046L557.665,513.54L558.702,512.457L559.618,511.295L560.399,510.08L561.056,508.793L561.6,507.416L562.014,505.974L562.168,505.235L562.285,504.488L562.363,503.737L562.402,502.983L562.369,501.483L562.195,500.014L561.888,498.603L561.443,497.228L560.853,495.87L560.126,494.557L559.713,493.926L559.267,493.315L558.791,492.729L558.285,492.168L557.202,491.131L556.04,490.216L554.826,489.435L553.538,488.777L552.161,488.234L550.718,487.82ZM692.933,299.856L774.765,605.256L774.89,605.589L775.083,605.902L775.336,606.172L775.628,606.381L775.953,606.529L776.311,606.614L776.681,606.626L777.036,606.567L777.37,606.442L777.684,606.248L777.953,605.995L778.163,605.702L778.31,605.377L778.395,605.019L778.406,604.65L778.348,604.296L696.516,298.896L696.389,298.559L696.195,298.246L695.943,297.978L695.653,297.77L695.325,297.621L694.965,297.537L694.597,297.526L694.245,297.584L693.907,297.711L693.593,297.906L693.325,298.159L693.118,298.449L692.97,298.777L692.885,299.137L692.875,299.504L692.933,299.856ZM867.341,432.44L868.716,431.995L870.073,431.406L871.386,430.679L872.017,430.266L872.628,429.82L873.215,429.344L873.775,428.838L874.813,427.754L875.728,426.593L876.509,425.377L877.166,424.09L877.71,422.714L878.124,421.272L878.278,420.533L878.395,419.786L878.472,419.034L878.511,418.28L878.479,416.78L878.304,415.312L877.997,413.901L877.552,412.525L876.962,411.168L876.235,409.855L875.822,409.223L875.376,408.613L874.899,408.026L874.394,407.466L873.31,406.429L872.149,405.514L870.934,404.733L869.646,404.076L868.269,403.532L866.827,403.118L866.088,402.964L865.341,402.848L864.589,402.77L863.835,402.731L862.336,402.764L860.868,402.938L859.458,403.245L858.082,403.691L856.724,404.281L855.411,405.008L854.779,405.421L854.169,405.867L853.583,406.344L853.022,406.849L851.985,407.932L851.07,409.094L850.29,410.308L849.633,411.596L849.089,412.973L848.675,414.415L848.521,415.154L848.405,415.901L848.327,416.652L848.288,417.406L848.321,418.905L848.495,420.374L848.802,421.785L849.248,423.16L849.837,424.517L850.564,425.83L850.977,426.461L851.423,427.072L851.899,427.658L852.405,428.219L853.488,429.256L854.65,430.171L855.865,430.952L857.152,431.609L858.528,432.152L859.97,432.567L860.709,432.721L861.456,432.838L862.207,432.915L862.961,432.954L864.461,432.922L865.93,432.748L867.341,432.44ZM861.562,580.784L780.337,277.651L780.21,277.314L780.016,277L779.764,276.733L779.474,276.525L779.146,276.376L778.786,276.292L778.418,276.281L778.066,276.339L777.728,276.466L777.414,276.661L777.146,276.914L776.939,277.204L776.791,277.532L776.706,277.891L776.696,278.259L776.754,278.611L857.978,581.744L858.104,582.078L858.297,582.391L858.549,582.66L858.842,582.87L859.167,583.017L859.525,583.102L859.894,583.114L860.25,583.055L860.584,582.93L860.898,582.736L861.167,582.483L861.377,582.191L861.524,581.866L861.609,581.507L861.62,581.139L861.562,580.784ZM699.804,626.488L617.4,318.949L617.273,318.612L617.079,318.298L616.826,318.031L616.536,317.823L616.208,317.674L615.849,317.59L615.48,317.579L615.128,317.637L614.791,317.764L614.477,317.959L614.209,318.212L614.001,318.502L613.853,318.83L613.769,319.189L613.758,319.557L613.816,319.909L696.221,627.448L696.347,627.781L696.54,628.094L696.792,628.364L697.085,628.573L697.41,628.721L697.768,628.806L698.137,628.818L698.493,628.759L698.827,628.634L699.141,628.44L699.41,628.187L699.62,627.894L699.767,627.569L699.852,627.211L699.863,626.842L699.804,626.488ZM425.997,705.752L426.331,705.626L426.645,705.432L426.914,705.179L427.124,704.887L427.271,704.562L427.356,704.204L427.367,703.835L427.309,703.48L342.915,388.519L342.788,388.183L342.594,387.869L342.342,387.601L342.052,387.393L341.724,387.245L341.364,387.16L340.996,387.149L340.643,387.208L340.306,387.335L339.992,387.53L339.724,387.783L339.517,388.073L339.369,388.401L339.284,388.76L339.274,389.128L339.332,389.479L423.725,704.44L423.851,704.774L424.044,705.087L424.296,705.356L424.589,705.566L424.914,705.713L425.272,705.799L425.641,705.81L425.997,705.752ZM624.358,649.706L624.692,649.58L625.006,649.386L625.275,649.133L625.485,648.841L625.632,648.516L625.716,648.158L625.728,647.789L625.669,647.434L542.724,337.876L542.597,337.539L542.403,337.226L542.15,336.958L541.86,336.75L541.532,336.602L541.173,336.517L540.804,336.506L540.452,336.564L540.115,336.692L539.801,336.886L539.533,337.139L539.325,337.429L539.177,337.757L539.093,338.117L539.082,338.485L539.14,338.836L622.086,648.394L622.212,648.728L622.405,649.041L622.657,649.31L622.95,649.52L623.274,649.667L623.633,649.753L624.002,649.764L624.358,649.706Z" style="fill:rgb(102,102,102);"/>
                </g>
                <g transform="matrix(0.156885,0,0,0.156885,-16.5912,-16.3252)">
                    <path d="M760.935,236.568C760.261,245.112 754.218,252.277 745.911,254.383L722.153,260.405C716.231,261.906 709.948,260.618 705.094,256.908C629.069,199.436 528.277,176.35 429.178,202.904C258.583,248.614 157.193,424.227 202.904,594.822C248.614,765.417 424.227,866.807 594.822,821.096C693.921,794.543 769.667,724.154 806.791,636.378C809.137,630.744 813.929,626.492 819.801,624.833C826.556,622.901 835.785,620.294 843.381,618.147C851.629,615.817 860.444,619.001 865.3,626.063L879.386,646.552C883.206,652.109 883.969,659.218 881.415,665.459C868.09,697.48 850.675,727.643 829.59,755.18C825.467,760.508 818.936,763.398 812.22,762.869C803.377,762.192 790.921,761.21 782.464,760.543C776.592,760.08 770.815,762.23 766.673,766.417C744.366,788.773 719.202,808.082 691.843,823.86C686.731,826.774 683.163,831.793 682.092,837.58C680.528,845.917 678.253,858.203 676.638,866.923C675.41,873.555 670.923,879.121 664.703,881.728C632.639,894.948 598.997,903.962 564.616,908.524C557.933,909.376 551.271,906.802 546.896,901.679C541.122,894.947 533.009,885.445 527.5,878.994C523.676,874.514 518.071,871.949 512.181,871.981C480.599,872.016 449.152,867.876 418.65,859.686C412.975,858.132 406.903,859.159 402.054,862.493C395.053,867.283 384.756,874.361 377.448,879.386C371.891,883.206 364.782,883.969 358.541,881.415C326.52,868.09 296.357,850.675 268.82,829.59C263.492,825.467 260.602,818.936 261.131,812.22C261.808,803.377 262.79,790.921 263.457,782.464C263.92,776.592 261.77,770.815 257.583,766.673C235.227,744.366 215.918,719.202 200.14,691.843C197.226,686.731 192.207,683.163 186.42,682.092C178.083,680.528 165.797,678.253 157.077,676.638C150.445,675.41 144.879,670.923 142.272,664.703C129.052,632.639 120.038,598.997 115.476,564.616C114.624,557.933 117.198,551.271 122.321,546.896C129.053,541.122 138.555,533.009 145.006,527.5C149.486,523.676 152.051,518.071 152.019,512.181C151.984,480.599 156.124,449.152 164.314,418.65C165.868,412.975 164.841,406.903 161.507,402.054C156.717,395.053 149.639,384.756 144.614,377.448C140.794,371.891 140.031,364.782 142.585,358.541C155.91,326.52 173.325,296.357 194.41,268.82C198.533,263.492 205.064,260.602 211.78,261.131C220.623,261.808 233.079,262.79 241.536,263.457C247.408,263.92 253.185,261.77 257.327,257.583C279.634,235.227 304.798,215.918 332.157,200.14C337.269,197.226 340.837,192.207 341.908,186.42C343.472,178.083 345.747,165.797 347.362,157.077C348.59,150.445 353.077,144.879 359.297,142.272C391.361,129.052 425.003,120.038 459.384,115.476C466.067,114.624 472.729,117.198 477.104,122.321C482.878,129.053 490.991,138.555 496.5,145.006C500.324,149.486 505.929,152.051 511.819,152.019C543.401,151.984 574.848,156.124 605.35,164.314C611.025,165.868 617.097,164.841 621.946,161.507C628.947,156.717 639.244,149.639 646.552,144.614C652.109,140.794 659.218,140.031 665.459,142.585C697.48,155.91 727.643,173.325 755.18,194.41C760.508,198.533 763.398,205.064 762.869,211.78C762.319,219.014 761.558,228.666 760.935,236.568Z" style="fill:rgb(102,102,102);"/>
                </g>
            </g>
        </g>
    </g>
</svg>
